<svg width="102" height="154" viewBox="0 0 102 154" fill="#1077A4" xmlns="http://www.w3.org/2000/svg">
<g filter="url(#filter0_i_733_9748)">
<path fill-rule="evenodd" clip-rule="evenodd" d="M50.9998 0L74.3781 40.8193C85.8818 60.4867 101.838 80.5253 101.838 103.161C101.838 130.993 78.8312 154 50.9998 154C22.7974 154 0.161255 130.993 0.161255 103.161C0.161255 80.5253 16.1179 60.4867 27.2504 40.8193L50.9998 0ZM76.6046 109.841C77.3468 107.243 79.9444 105.759 82.542 106.501C85.1396 107.243 86.6239 109.841 86.2528 112.439C82.542 126.169 70.6673 136.93 56.5661 139.157C53.9685 139.528 51.3709 137.672 50.9998 135.075C50.6287 132.477 52.4842 129.88 55.0817 129.508C65.4721 128.024 74.0071 120.231 76.6046 109.841Z" />
</g>
<defs>
<filter id="filter0_i_733_9748" x="0.161255" y="0" width="101.677" height="158" filterUnits="userSpaceOnUse" color-interpolation-filters="sRGB">
<feFlood flood-opacity="0" result="BackgroundImageFix"/>
<feBlend mode="normal" in="SourceGraphic" in2="BackgroundImageFix" result="shape"/>
<feColorMatrix in="SourceAlpha" type="matrix" values="0 0 0 0 0 0 0 0 0 0 0 0 0 0 0 0 0 0 127 0" result="hardAlpha"/>
<feOffset dy="4"/>
<feGaussianBlur stdDeviation="2"/>
<feComposite in2="hardAlpha" operator="arithmetic" k2="-1" k3="1"/>
<feColorMatrix type="matrix" values="0 0 0 0 0.063941 0 0 0 0 0.387713 0 0 0 0 0.529167 0 0 0 1 0"/>
<feBlend mode="normal" in2="shape" result="effect1_innerShadow_733_9748"/>
</filter>
</defs>
</svg>
